name p9_grf_mean_speed_1.8
datacolumns 13
datarows 63
range 0.0000000000 0.6200000000
endheader
time	grf_x_l_mean	grf_x_l_var	grf_y_l_mean	grf_y_l_var	grf_z_l_mean	grf_z_l_var	grf_x_r_mean	grf_x_r_var	grf_y_r_mean	grf_y_r_var	grf_z_r_mean	grf_z_r_var
0.0000000000	186.3424374771	1.0000000000	817.2933395668	1.0000000000	0.0000000000	0.0000000000	10.5157682998	1.0000000000	11.7213337891	1.0000000000	0.0000000000	0.0000000000
0.0100000000	195.3772299490	1.0000000000	781.9331746944	1.0000000000	0.0000000000	0.0000000000	12.2939389080	1.0000000000	60.8962525464	1.0000000000	0.0000000000	0.0000000000
0.0200000000	201.3917870876	1.0000000000	733.0163115131	1.0000000000	0.0000000000	0.0000000000	11.6919850462	1.0000000000	141.2598397338	1.0000000000	0.0000000000	0.0000000000
0.0300000000	202.5396540296	1.0000000000	670.5636725795	1.0000000000	0.0000000000	0.0000000000	3.6744842160	1.0000000000	253.2040105799	1.0000000000	0.0000000000	0.0000000000
0.0400000000	196.7027581551	1.0000000000	596.1387255820	1.0000000000	0.0000000000	0.0000000000	-18.5266415848	1.0000000000	388.2822593094	1.0000000000	0.0000000000	0.0000000000
0.0500000000	182.5980607209	1.0000000000	512.2007527495	1.0000000000	0.0000000000	0.0000000000	-54.8450033640	1.0000000000	532.0694843908	1.0000000000	0.0000000000	0.0000000000
0.0600000000	161.1321676228	1.0000000000	422.2110220038	1.0000000000	0.0000000000	0.0000000000	-96.1273384586	1.0000000000	668.9964395338	1.0000000000	0.0000000000	0.0000000000
0.0700000000	134.5310789793	1.0000000000	331.1793143739	1.0000000000	0.0000000000	0.0000000000	-133.1613148253	1.0000000000	784.7862094928	1.0000000000	0.0000000000	0.0000000000
0.0800000000	105.1278930222	1.0000000000	244.7259519040	1.0000000000	0.0000000000	0.0000000000	-162.7122870267	1.0000000000	871.6001529945	1.0000000000	0.0000000000	0.0000000000
0.0900000000	75.4229821415	1.0000000000	168.2115429646	1.0000000000	0.0000000000	0.0000000000	-182.7378217554	1.0000000000	929.9283551438	1.0000000000	0.0000000000	0.0000000000
0.1000000000	49.7129536804	1.0000000000	105.4974122663	1.0000000000	0.0000000000	0.0000000000	-191.9583683566	1.0000000000	964.3312862732	1.0000000000	0.0000000000	0.0000000000
0.1100000000	29.6807009384	1.0000000000	58.1328577644	1.0000000000	0.0000000000	0.0000000000	-190.6010176062	1.0000000000	978.9438784027	1.0000000000	0.0000000000	0.0000000000
0.1200000000	15.0445582800	1.0000000000	25.2962199863	1.0000000000	0.0000000000	0.0000000000	-181.3098659003	1.0000000000	976.9500844912	1.0000000000	0.0000000000	0.0000000000
0.1300000000	5.9922271314	1.0000000000	4.9537496156	1.0000000000	0.0000000000	0.0000000000	-167.0435572736	1.0000000000	961.9071748735	1.0000000000	0.0000000000	0.0000000000
0.1400000000	0.0000000000	1.0000000000	0.0000000000	1.0000000000	0.0000000000	0.0000000000	-149.0193309303	1.0000000000	937.4898177260	1.0000000000	0.0000000000	0.0000000000
0.1500000000	0.0000000000	1.0000000000	0.0000000000	1.0000000000	0.0000000000	0.0000000000	-129.7970418754	1.0000000000	905.7675222694	1.0000000000	0.0000000000	0.0000000000
0.1600000000	0.0000000000	1.0000000000	0.0000000000	1.0000000000	0.0000000000	0.0000000000	-111.1579038817	1.0000000000	866.7920593818	1.0000000000	0.0000000000	0.0000000000
0.1700000000	0.0000000000	1.0000000000	0.0000000000	1.0000000000	0.0000000000	0.0000000000	-93.2170282681	1.0000000000	820.7605116706	1.0000000000	0.0000000000	0.0000000000
0.1800000000	0.0000000000	1.0000000000	0.0000000000	1.0000000000	0.0000000000	0.0000000000	-76.2125250820	1.0000000000	769.5314752442	1.0000000000	0.0000000000	0.0000000000
0.1900000000	0.0000000000	1.0000000000	0.0000000000	1.0000000000	0.0000000000	0.0000000000	-61.3233886025	1.0000000000	715.9333901950	1.0000000000	0.0000000000	0.0000000000
0.2000000000	0.0000000000	1.0000000000	0.0000000000	1.0000000000	0.0000000000	0.0000000000	-48.8602404873	1.0000000000	662.1661073579	1.0000000000	0.0000000000	0.0000000000
0.2100000000	0.0000000000	1.0000000000	0.0000000000	1.0000000000	0.0000000000	0.0000000000	-38.0861134048	1.0000000000	610.0435621935	1.0000000000	0.0000000000	0.0000000000
0.2200000000	0.0000000000	1.0000000000	0.0000000000	1.0000000000	0.0000000000	0.0000000000	-29.3050902746	1.0000000000	561.5472519236	1.0000000000	0.0000000000	0.0000000000
0.2300000000	0.0000000000	1.0000000000	0.0000000000	1.0000000000	0.0000000000	0.0000000000	-22.6084199805	1.0000000000	518.1312232020	1.0000000000	0.0000000000	0.0000000000
0.2400000000	0.0000000000	1.0000000000	0.0000000000	1.0000000000	0.0000000000	0.0000000000	-17.4448450135	1.0000000000	480.9168844210	1.0000000000	0.0000000000	0.0000000000
0.2500000000	0.0000000000	1.0000000000	0.0000000000	1.0000000000	0.0000000000	0.0000000000	-13.2226508424	1.0000000000	450.7922853034	1.0000000000	0.0000000000	0.0000000000
0.2600000000	0.0000000000	1.0000000000	0.0000000000	1.0000000000	0.0000000000	0.0000000000	-10.1755908902	1.0000000000	428.0398624671	1.0000000000	0.0000000000	0.0000000000
0.2700000000	0.0000000000	1.0000000000	0.0000000000	1.0000000000	0.0000000000	0.0000000000	-7.8885189679	1.0000000000	412.4852421650	1.0000000000	0.0000000000	0.0000000000
0.2800000000	0.0000000000	1.0000000000	0.0000000000	1.0000000000	0.0000000000	0.0000000000	-5.3013482261	1.0000000000	404.0253857133	1.0000000000	0.0000000000	0.0000000000
0.2900000000	0.0000000000	1.0000000000	0.0000000000	1.0000000000	0.0000000000	0.0000000000	-2.5891133533	1.0000000000	402.7608966616	1.0000000000	0.0000000000	0.0000000000
0.3000000000	0.0000000000	1.0000000000	0.0000000000	1.0000000000	0.0000000000	0.0000000000	0.1916719295	1.0000000000	408.2847512502	1.0000000000	0.0000000000	0.0000000000
0.3100000000	0.0000000000	1.0000000000	0.0000000000	1.0000000000	0.0000000000	0.0000000000	3.4451674889	1.0000000000	419.6932645750	1.0000000000	0.0000000000	0.0000000000
0.3200000000	0.0000000000	1.0000000000	0.0000000000	1.0000000000	0.0000000000	0.0000000000	7.6517965569	1.0000000000	436.3512381036	1.0000000000	0.0000000000	0.0000000000
0.3300000000	3.7609907502	1.0000000000	0.0757175589	1.0000000000	0.0000000000	0.0000000000	12.6963900432	1.0000000000	457.8899537318	1.0000000000	0.0000000000	0.0000000000
0.3400000000	3.4625878013	1.0000000000	0.5745865413	1.0000000000	0.0000000000	0.0000000000	18.4088804674	1.0000000000	483.9219816817	1.0000000000	0.0000000000	0.0000000000
0.3500000000	3.4933677798	1.0000000000	1.2044959609	1.0000000000	0.0000000000	0.0000000000	24.9680862694	1.0000000000	513.8599724060	1.0000000000	0.0000000000	0.0000000000
0.3600000000	3.4616005726	1.0000000000	1.9554047207	1.0000000000	0.0000000000	0.0000000000	32.1956604402	1.0000000000	546.7813807452	1.0000000000	0.0000000000	0.0000000000
0.3700000000	3.1019639942	1.0000000000	2.7988614913	1.0000000000	0.0000000000	0.0000000000	40.2234546170	1.0000000000	581.6710666099	1.0000000000	0.0000000000	0.0000000000
0.3800000000	2.9534523163	1.0000000000	3.6569680833	1.0000000000	0.0000000000	0.0000000000	49.2518859242	1.0000000000	617.6786207106	1.0000000000	0.0000000000	0.0000000000
0.3900000000	2.9731882180	1.0000000000	4.5343475963	1.0000000000	0.0000000000	0.0000000000	59.2234143310	1.0000000000	654.0568975964	1.0000000000	0.0000000000	0.0000000000
0.4000000000	2.7584962048	1.0000000000	5.3198355801	1.0000000000	0.0000000000	0.0000000000	70.0579770677	1.0000000000	689.7591474592	1.0000000000	0.0000000000	0.0000000000
0.4100000000	2.5836368200	1.0000000000	5.5597885151	1.0000000000	0.0000000000	0.0000000000	82.0638108703	1.0000000000	723.3559254858	1.0000000000	0.0000000000	0.0000000000
0.4200000000	2.6793178010	1.0000000000	4.7962153192	1.0000000000	0.0000000000	0.0000000000	95.3839311578	1.0000000000	753.5212569989	1.0000000000	0.0000000000	0.0000000000
0.4300000000	2.9246412001	1.0000000000	2.7323317626	1.0000000000	0.0000000000	0.0000000000	109.4501409466	1.0000000000	779.0731100140	1.0000000000	0.0000000000	0.0000000000
0.4400000000	0.0000000000	1.0000000000	0.0000000000	1.0000000000	0.0000000000	0.0000000000	123.8045322789	1.0000000000	798.6915893915	1.0000000000	0.0000000000	0.0000000000
0.4500000000	0.0000000000	1.0000000000	0.0000000000	1.0000000000	0.0000000000	0.0000000000	137.9632200102	1.0000000000	811.0007977736	1.0000000000	0.0000000000	0.0000000000
0.4600000000	0.0000000000	1.0000000000	0.0000000000	1.0000000000	0.0000000000	0.0000000000	151.2884715114	1.0000000000	814.7876470896	1.0000000000	0.0000000000	0.0000000000
0.4700000000	0.0000000000	1.0000000000	0.0000000000	1.0000000000	0.0000000000	0.0000000000	163.2588170799	1.0000000000	809.0223184819	1.0000000000	0.0000000000	0.0000000000
0.4800000000	0.0000000000	1.0000000000	0.0000000000	1.0000000000	0.0000000000	0.0000000000	173.5842431449	1.0000000000	792.9050010106	1.0000000000	0.0000000000	0.0000000000
0.4900000000	16.1568574513	1.0000000000	22.8719462568	1.0000000000	0.0000000000	0.0000000000	181.7533750473	1.0000000000	766.2086789123	1.0000000000	0.0000000000	0.0000000000
0.5000000000	18.4774299306	1.0000000000	72.5912402725	1.0000000000	0.0000000000	0.0000000000	186.9741799703	1.0000000000	729.1836616088	1.0000000000	0.0000000000	0.0000000000
0.5100000000	16.1529166699	1.0000000000	153.4635267185	1.0000000000	0.0000000000	0.0000000000	188.8328402855	1.0000000000	681.7108155093	1.0000000000	0.0000000000	0.0000000000
0.5200000000	3.8683792055	1.0000000000	265.5985318132	1.0000000000	0.0000000000	0.0000000000	186.7687279234	1.0000000000	623.4425192210	1.0000000000	0.0000000000	0.0000000000
0.5300000000	-23.7982139417	1.0000000000	400.7540816682	1.0000000000	0.0000000000	0.0000000000	179.3710847874	1.0000000000	555.1202887224	1.0000000000	0.0000000000	0.0000000000
0.5400000000	-65.5504649813	1.0000000000	544.2087961820	1.0000000000	0.0000000000	0.0000000000	165.7838626098	1.0000000000	478.9988248405	1.0000000000	0.0000000000	0.0000000000
0.5500000000	-111.8711933338	1.0000000000	678.7241293841	1.0000000000	0.0000000000	0.0000000000	147.2961968170	1.0000000000	398.3293221858	1.0000000000	0.0000000000	0.0000000000
0.5600000000	-153.7510657074	1.0000000000	789.0058300643	1.0000000000	0.0000000000	0.0000000000	125.4693067924	1.0000000000	316.6198175465	1.0000000000	0.0000000000	0.0000000000
0.5700000000	-187.9480711283	1.0000000000	867.8792571124	1.0000000000	0.0000000000	0.0000000000	100.9600045316	1.0000000000	237.6346611241	1.0000000000	0.0000000000	0.0000000000
0.5800000000	-211.9246112545	1.0000000000	918.2200966539	1.0000000000	0.0000000000	0.0000000000	75.7626690903	1.0000000000	165.7859644923	1.0000000000	0.0000000000	0.0000000000
0.5900000000	-223.6429392931	1.0000000000	948.5547542380	1.0000000000	0.0000000000	0.0000000000	53.5423143614	1.0000000000	105.4100249039	1.0000000000	0.0000000000	0.0000000000
0.6000000000	-224.4887816871	1.0000000000	966.9991895755	1.0000000000	0.0000000000	0.0000000000	35.1083073234	1.0000000000	59.3509136247	1.0000000000	0.0000000000	0.0000000000
0.6100000000	-217.5614330549	1.0000000000	977.4214722917	1.0000000000	0.0000000000	0.0000000000	20.2245190110	1.0000000000	27.4142555152	1.0000000000	0.0000000000	0.0000000000
0.6200000000	-204.3853801746	1.0000000000	979.8773112784	1.0000000000	0.0000000000	0.0000000000	10.2792000233	1.0000000000	7.2056464289	1.0000000000	0.0000000000	0.0000000000
